<svg xmlns="http://www.w3.org/2000/svg" viewBox="0 0 64 64" width="64" height="64">
  <!-- 极简版：无背景方块，仅 C 形庇护 + 放大碎片，适配深浅任务栏 -->
  <path d="M 18 52 C 10 46, 6 36, 6 28 C 6 20, 10 14, 18 10 L 24 16 C 18 18, 14 22, 14 28 C 14 34, 18 40, 24 44 Z" fill="#4A9E9E" opacity=".95"/>
  <path d="M 18 10 C 28 4, 40 4, 50 8 L 46 16 C 38 12, 30 12, 24 16 Z" fill="#4A9E9E" opacity=".85"/>
  <!-- 西瓜红碎片（放大突出） -->
  <circle cx="26" cy="26" r="5" fill="#FF4757" opacity=".92"/>
  <circle cx="36" cy="24" r="4" fill="#FF6B81" opacity=".88"/>
  <circle cx="32" cy="34" r="3.5" fill="#FFD93D" opacity=".9"/>
  <!-- 微光点缀 -->
  <circle cx="26" cy="26" r="2" fill="#FFF" opacity=".45"/>
  <circle cx="36" cy="24" r="1.5" fill="#FFF" opacity=".4"/>
</svg>